<?xml version="1.0" encoding="UTF-8" standalone="no"?>
<!-- Generator: Adobe Illustrator 16.0.0, SVG Export Plug-In . SVG Version: 6.00 Build 0)  -->

<svg
   xmlns:dc="http://purl.org/dc/elements/1.1/"
   xmlns:cc="http://creativecommons.org/ns#"
   xmlns:rdf="http://www.w3.org/1999/02/22-rdf-syntax-ns#"
   xmlns:svg="http://www.w3.org/2000/svg"
   xmlns="http://www.w3.org/2000/svg"
   xmlns:sodipodi="http://sodipodi.sourceforge.net/DTD/sodipodi-0.dtd"
   xmlns:inkscape="http://www.inkscape.org/namespaces/inkscape"
   version="1.1"
   id="Capa_1"
   x="0px"
   y="0px"
   width="50"
   height="32.623268"
   viewBox="0 0 49.999999 32.623267"
   xml:space="preserve"
   inkscape:version="0.48.0 r9654"
   sodipodi:docname="arrow621.svg"><metadata
   id="metadata41"><rdf:RDF><cc:Work
       rdf:about=""><dc:format>image/svg+xml</dc:format><dc:type
         rdf:resource="http://purl.org/dc/dcmitype/StillImage" /></cc:Work></rdf:RDF></metadata><defs
   id="defs39" /><sodipodi:namedview
   pagecolor="#ffffff"
   bordercolor="#666666"
   borderopacity="1"
   objecttolerance="10"
   gridtolerance="10"
   guidetolerance="10"
   inkscape:pageopacity="0"
   inkscape:pageshadow="2"
   inkscape:window-width="813"
   inkscape:window-height="480"
   id="namedview37"
   showgrid="false"
   inkscape:zoom="2.9649101"
   inkscape:cx="49.074002"
   inkscape:cy="32.019501"
   inkscape:window-x="0"
   inkscape:window-y="0"
   inkscape:window-maximized="0"
   inkscape:current-layer="Capa_1"
   fit-margin-top="0"
   fit-margin-left="0"
   fit-margin-right="0"
   fit-margin-bottom="0" />
<g
   id="g3"
   transform="matrix(0,-0.50943212,0.50943212,0,0,41.311634)">
	<path
   d="M 33.458,97.562 80.531,50.49 c 0.75,-0.75 0.75,-2.078 0,-2.828 L 33.456,0.586 C 33.081,0.211 32.572,0 32.042,0 31.512,0 31.003,0.211 30.628,0.586 L 17.641,13.573 c -0.391,0.391 -0.586,0.902 -0.586,1.414 0,0.512 0.195,1.023 0.586,1.414 L 50.315,49.075 17.642,81.75 c -0.751,0.75 -0.75,2.078 0,2.828 l 12.987,12.984 c 0.782,0.782 2.048,0.782 2.829,0 z"
   id="path5"
   inkscape:connector-curvature="0" />
</g>
<g
   id="g7"
   transform="translate(0,-48.470231)">
</g>
<g
   id="g9"
   transform="translate(0,-48.470231)">
</g>
<g
   id="g11"
   transform="translate(0,-48.470231)">
</g>
<g
   id="g13"
   transform="translate(0,-48.470231)">
</g>
<g
   id="g15"
   transform="translate(0,-48.470231)">
</g>
<g
   id="g17"
   transform="translate(0,-48.470231)">
</g>
<g
   id="g19"
   transform="translate(0,-48.470231)">
</g>
<g
   id="g21"
   transform="translate(0,-48.470231)">
</g>
<g
   id="g23"
   transform="translate(0,-48.470231)">
</g>
<g
   id="g25"
   transform="translate(0,-48.470231)">
</g>
<g
   id="g27"
   transform="translate(0,-48.470231)">
</g>
<g
   id="g29"
   transform="translate(0,-48.470231)">
</g>
<g
   id="g31"
   transform="translate(0,-48.470231)">
</g>
<g
   id="g33"
   transform="translate(0,-48.470231)">
</g>
<g
   id="g35"
   transform="translate(0,-48.470231)">
</g>
<g
   transform="matrix(0,-0.50943212,0.50943212,0,0,41.311634)"
   id="g2998">
	<path
   inkscape:connector-curvature="0"
   id="path3000"
   d="M 33.458,97.562 80.531,50.49 c 0.75,-0.75 0.75,-2.078 0,-2.828 L 33.456,0.586 C 33.081,0.211 32.572,0 32.042,0 31.512,0 31.003,0.211 30.628,0.586 L 17.641,13.573 c -0.391,0.391 -0.586,0.902 -0.586,1.414 0,0.512 0.195,1.023 0.586,1.414 L 50.315,49.075 17.642,81.75 c -0.751,0.75 -0.75,2.078 0,2.828 l 12.987,12.984 c 0.782,0.782 2.048,0.782 2.829,0 z" />
</g></svg>